<?xml version="1.0" encoding="UTF-8"?>
<svg id="Capa_1" data-name="Capa 1" xmlns="http://www.w3.org/2000/svg" viewBox="0 0 200 76.1">
  <defs>
    <style>
      .cls-1 {
        fill: #6cbfa5;
      }

      .cls-2 {
        fill: #fff;
      }

      .cls-3 {
        fill: #56c3e8;
      }

      .cls-4 {
        fill: #826aac;
      }
    </style>
  </defs>
  <g>
    <rect class="cls-2" x="161.2" y="4.2" width="6.1" height="6.5"/>
    <g>
      <rect class="cls-2" x="161.2" y="19" width="6.1" height="56.5"/>
      <polygon class="cls-2" points="105.9 19 81 19 81 19 81 22.6 81 75.5 87.1 75.5 87.1 22.6 105.9 22.6 105.9 19"/>
      <polygon class="cls-2" points="188.1 69.1 188.1 22.6 198.5 22.6 198.5 19 188.1 19 188.1 7.4 182 7.4 182 19 178 19 178 22.6 182 22.6 182 69.1 182 75.5 188.1 75.5 200 75.5 200 69.1 188.1 69.1"/>
      <path class="cls-2" d="M113.4,19h0v56.5h34.4V19h0s-34.4,0-34.4,0ZM141.6,69.1h-22.1V22.6h22.1v46.5Z"/>
      <polygon class="cls-2" points="76.2 3.5 76.2 0 61.9 0 55.8 0 55.8 3.5 55.8 19 50.5 19 50.5 22.6 55.8 22.6 55.8 76.1 61.9 76.1 61.9 22.6 72.5 22.6 72.5 19 61.9 19 61.9 3.5 76.2 3.5"/>
    </g>
  </g>
  <g>
    <rect class="cls-1" y="56.7" width="18.8" height="18.8"/>
    <rect class="cls-3" y="19" width="18.8" height="18.8"/>
    <rect class="cls-4" x="18.8" y="37.9" width="18.8" height="18.8"/>
  </g>
</svg>
